<svg width="43" height="46" viewBox="0 0 43 46" fill="none" xmlns="http://www.w3.org/2000/svg">
<path d="M12 33V31.5H14.1V23.85C14.1 22.45 14.5125 21.2042 15.3375 20.1125C16.1625 19.0208 17.25 18.3333 18.6 18.05V17.325C18.6 16.9417 18.7375 16.625 19.0125 16.375C19.2875 16.125 19.6167 16 20 16C20.3833 16 20.7125 16.125 20.9875 16.375C21.2625 16.625 21.4 16.9417 21.4 17.325V18.05C22.75 18.3333 23.8417 19.0208 24.675 20.1125C25.5083 21.2042 25.925 22.45 25.925 23.85V31.5H28V33H12ZM20 36C19.4667 36 19 35.8042 18.6 35.4125C18.2 35.0208 18 34.55 18 34H22C22 34.55 21.8042 35.0208 21.4125 35.4125C21.0208 35.8042 20.55 36 20 36ZM15.6 31.5H24.425V23.85C24.425 22.6167 24 21.5667 23.15 20.7C22.3 19.8333 21.2583 19.4 20.025 19.4C18.7917 19.4 17.7458 19.8333 16.8875 20.7C16.0292 21.5667 15.6 22.6167 15.6 23.85V31.5Z" fill="black"/>
<rect x="0.5" y="6.5" width="39" height="39" rx="7.5" stroke="#E4E4E7"/>
<circle cx="37" cy="6" r="6" fill="#E11D48"/>
</svg>
