<svg width="104" height="41" viewBox="0 0 104 41" fill="none" xmlns="http://www.w3.org/2000/svg">
<g clip-path="url(#clip0_1325_1713)">
<path d="M8.74903 23.8643L20.5412 9.4253H33.1432L20.2958 23.8152L33.6463 40.4293H21.2038L8.76129 23.8643H8.74903ZM0 0H9.96382V40.4293H0V0ZM35.7201 9.4253H44.9721V18.8998C45.512 16.7738 46.4201 14.9675 47.7085 13.4805C48.9847 11.9567 50.4572 10.8262 52.1138 10.0889C53.7702 9.31472 55.4514 8.92149 57.1692 8.92149C58.8872 8.92149 60.4088 9.27785 61.8198 9.99059C63.231 10.7033 64.3722 11.7478 65.2066 13.1364C66.0532 14.525 66.4704 16.1718 66.4704 18.101V40.4416H56.4576V21.3452C56.4576 19.9565 56.0894 18.8998 55.3409 18.1502C54.6047 17.376 53.6599 16.9828 52.5064 16.9828C51.4266 16.9828 50.3589 17.3391 49.3161 18.0518C48.273 18.7647 47.3895 19.8214 46.6901 21.2469C46.0151 22.6354 45.6839 24.2698 45.6839 26.1623V40.4538H35.7201V9.4253ZM86.4841 40.9823C82.8765 40.9823 79.7719 40.2449 77.1705 38.7581C74.5691 37.2342 72.6181 35.2681 71.3051 32.835C69.9921 30.4018 69.3295 27.8213 69.3295 25.0809C69.3295 22.3406 70.0044 19.6617 71.3542 17.2285C72.704 14.7585 74.6918 12.7678 77.3178 11.2563C79.9437 9.70795 83.1341 8.92149 86.8767 8.92149C90.6192 8.92149 93.5765 9.68338 96.1287 11.2072C98.7302 12.7309 100.681 14.6971 101.994 17.1302C103.307 19.5633 103.97 22.144 103.97 24.8843C103.97 27.6246 103.295 30.2667 101.945 32.7367C100.595 35.2066 98.6074 37.1973 95.9816 38.7088C93.3556 40.2327 90.1775 40.9945 86.4717 40.9945L86.4841 40.9823ZM87.1467 33.3265C88.5946 33.3265 89.8093 32.9947 90.7911 32.3189C91.7973 31.6061 92.5579 30.6476 93.0734 29.431C93.5765 28.2145 93.8341 26.8996 93.8341 25.4741C93.8341 23.9503 93.5273 22.5003 92.9261 21.1117C92.3494 19.7231 91.4781 18.6294 90.3002 17.8184C89.1591 16.9704 87.7724 16.5527 86.1527 16.5527C84.7416 16.5527 83.5267 16.9091 82.5083 17.6217C81.5267 18.3344 80.7904 19.293 80.2873 20.5095C79.7842 21.6893 79.5265 22.9918 79.5265 24.405C79.5265 25.9534 79.8333 27.428 80.4346 28.8165C81.0358 30.1683 81.9193 31.2621 83.0604 32.1099C84.2017 32.9209 85.5759 33.3265 87.1589 33.3265H87.1467Z" fill="#8E186D"/>
<path d="M91.6136 1.4375H80.3735V6.02113H91.6136V1.4375Z" fill="#8E186D"/>
</g>
<defs>
<clipPath id="clip0_1325_1713">
<rect width="104" height="41" fill="white"/>
</clipPath>
</defs>
</svg>
