<svg width="24" height="24" viewBox="0 0 24 24" fill="none" xmlns="http://www.w3.org/2000/svg">
<path d="M6.5 23C6.1 23 5.75 22.85 5.45 22.55C5.15 22.25 5 21.9 5 21.5V2.5C5 2.1 5.15 1.75 5.45 1.45C5.75 1.15 6.1 1 6.5 1H17.5C17.9 1 18.25 1.15 18.55 1.45C18.85 1.75 19 2.1 19 2.5V21.5C19 21.9 18.85 22.25 18.55 22.55C18.25 22.85 17.9 23 17.5 23H6.5ZM6.5 19.25V21.5H17.5V19.25H6.5ZM12 21.125C12.2167 21.125 12.3958 21.0542 12.5375 20.9125C12.6792 20.7708 12.75 20.5917 12.75 20.375C12.75 20.1583 12.6792 19.9792 12.5375 19.8375C12.3958 19.6958 12.2167 19.625 12 19.625C11.7833 19.625 11.6042 19.6958 11.4625 19.8375C11.3208 19.9792 11.25 20.1583 11.25 20.375C11.25 20.5917 11.3208 20.7708 11.4625 20.9125C11.6042 21.0542 11.7833 21.125 12 21.125ZM6.5 17.75H17.5V4.75H6.5V17.75ZM6.5 3.25H17.5V2.5H6.5V3.25Z" fill="#8E186D"/>
</svg>
