<svg width="21" height="20" viewBox="0 0 21 20" fill="none" xmlns="http://www.w3.org/2000/svg">
<path d="M10.5 19.1668C8.94444 19.1668 7.44444 18.7085 5.99999 17.7918C4.55555 16.8752 3.41666 15.8266 2.58333 14.646V17.5002H1.33333V12.5002H6.33333V13.7502H3.47916C4.18749 14.8196 5.19791 15.7814 6.51041 16.6356C7.82291 17.4897 9.15277 17.9168 10.5 17.9168C11.5833 17.9168 12.6076 17.7085 13.5729 17.2918C14.5382 16.8752 15.3785 16.3092 16.0937 15.5939C16.809 14.8786 17.375 14.0384 17.7917 13.0731C18.2083 12.1078 18.4167 11.0835 18.4167 10.0002H19.6667C19.6667 11.2641 19.4271 12.4516 18.9479 13.5627C18.4687 14.6738 17.8125 15.646 16.9792 16.4793C16.1458 17.3127 15.1736 17.9689 14.0625 18.4481C12.9514 18.9272 11.7639 19.1668 10.5 19.1668ZM9.89583 15.9793V14.8543C9.27083 14.6877 8.74652 14.4203 8.32291 14.0522C7.8993 13.6842 7.54166 13.1807 7.24999 12.5418L8.31249 12.1877C8.47916 12.7154 8.7743 13.1321 9.19791 13.4377C9.62152 13.7432 10.1042 13.896 10.6458 13.896C11.2014 13.896 11.6632 13.7606 12.0312 13.4897C12.3993 13.2189 12.5833 12.8613 12.5833 12.4168C12.5833 11.9585 12.4097 11.5731 12.0625 11.2606C11.7153 10.9481 11.0764 10.5974 10.1458 10.2085C9.31249 9.86127 8.68749 9.48627 8.27083 9.0835C7.85416 8.68072 7.64583 8.13905 7.64583 7.4585C7.64583 6.84738 7.85416 6.32655 8.27083 5.896C8.68749 5.46544 9.24305 5.20155 9.93749 5.10433V4.04183H11.0833V5.10433C11.6111 5.15988 12.0694 5.32655 12.4583 5.60433C12.8472 5.88211 13.1597 6.26405 13.3958 6.75016L12.3958 7.22933C12.1875 6.84044 11.9305 6.54877 11.625 6.35433C11.3194 6.15988 10.9583 6.06266 10.5417 6.06266C9.99999 6.06266 9.57291 6.18766 9.26041 6.43766C8.94791 6.68766 8.79166 7.02794 8.79166 7.4585C8.79166 7.90294 8.97222 8.25711 9.33333 8.521C9.69444 8.78488 10.2778 9.0835 11.0833 9.41683C12.0417 9.81961 12.7222 10.2432 13.125 10.6877C13.5278 11.1321 13.7292 11.7085 13.7292 12.4168C13.7292 12.7641 13.6667 13.0835 13.5417 13.3752C13.4167 13.6668 13.2396 13.9168 13.0104 14.1252C12.7812 14.3335 12.5 14.5036 12.1667 14.6356C11.8333 14.7675 11.4583 14.8543 11.0417 14.896V15.9793H9.89583ZM1.33333 10.0002C1.33333 8.73627 1.57291 7.54877 2.05208 6.43766C2.53124 5.32655 3.18749 4.35433 4.02083 3.521C4.85416 2.68766 5.82638 2.03141 6.93749 1.55225C8.04861 1.07308 9.23611 0.833496 10.5 0.833496C12.0555 0.833496 13.5555 1.29183 15 2.2085C16.4444 3.12516 17.5833 4.17377 18.4167 5.35433V2.50016H19.6667V7.50016H14.6667V6.25016H17.5208C16.8125 5.18072 15.8055 4.21891 14.5 3.36475C13.1944 2.51058 11.8611 2.0835 10.5 2.0835C9.41666 2.0835 8.39236 2.29183 7.42708 2.7085C6.4618 3.12516 5.62152 3.69113 4.90624 4.40641C4.19097 5.12169 3.62499 5.96197 3.20833 6.92725C2.79166 7.89252 2.58333 8.91683 2.58333 10.0002H1.33333Z" fill="#8E186D"/>
</svg>
