<svg width="21" height="20" viewBox="0 0 21 20" fill="none" xmlns="http://www.w3.org/2000/svg">
<path d="M5.125 18.3332C4.51736 18.3332 4.00087 18.1205 3.57552 17.6951C3.15017 17.2698 2.9375 16.7533 2.9375 16.1457V13.5415H5.58333V1.6665L6.82917 2.9165L8.075 1.6665L9.32083 2.9165L10.5667 1.6665L11.8125 2.9165L13.0625 1.6665L14.3125 2.9165L15.5625 1.6665L16.8125 2.9165L18.0625 1.6665V16.1457C18.0625 16.7533 17.8498 17.2698 17.4245 17.6951C16.9991 18.1205 16.4826 18.3332 15.875 18.3332H5.125ZM15.875 17.0832C16.1528 17.0832 16.3785 16.9964 16.5521 16.8228C16.7257 16.6491 16.8125 16.4234 16.8125 16.1457V3.74984H6.83333V13.5415H14.9375V16.1457C14.9375 16.4234 15.0243 16.6491 15.1979 16.8228C15.3715 16.9964 15.5972 17.0832 15.875 17.0832ZM7.9375 7.0415V5.7915H12.9375V7.0415H7.9375ZM7.9375 9.83317V8.58317H12.9375V9.83317H7.9375ZM14.875 7.0415C14.7083 7.0415 14.5625 6.979 14.4375 6.854C14.3125 6.729 14.25 6.58317 14.25 6.4165C14.25 6.24984 14.3125 6.104 14.4375 5.979C14.5625 5.854 14.7083 5.7915 14.875 5.7915C15.0417 5.7915 15.1875 5.854 15.3125 5.979C15.4375 6.104 15.5 6.24984 15.5 6.4165C15.5 6.58317 15.4375 6.729 15.3125 6.854C15.1875 6.979 15.0417 7.0415 14.875 7.0415ZM14.875 9.729C14.7083 9.729 14.5625 9.6665 14.4375 9.5415C14.3125 9.4165 14.25 9.27067 14.25 9.104C14.25 8.93734 14.3125 8.7915 14.4375 8.6665C14.5625 8.5415 14.7083 8.479 14.875 8.479C15.0417 8.479 15.1875 8.5415 15.3125 8.6665C15.4375 8.7915 15.5 8.93734 15.5 9.104C15.5 9.27067 15.4375 9.4165 15.3125 9.5415C15.1875 9.6665 15.0417 9.729 14.875 9.729ZM5.10417 17.0832H13.6875V14.7915H4.1875V16.1457C4.1875 16.4234 4.27535 16.6491 4.45104 16.8228C4.62674 16.9964 4.84444 17.0832 5.10417 17.0832Z" fill="white"/>
</svg>
