<svg width="18" height="18" viewBox="0 0 18 18" fill="none" xmlns="http://www.w3.org/2000/svg">
<path d="M7.08317 17.3334L6.6665 14.7084C6.40261 14.6111 6.12484 14.4792 5.83317 14.3125C5.5415 14.1459 5.28456 13.9722 5.06234 13.7917L2.604 14.9167L0.666504 11.5L2.9165 9.85419C2.88873 9.72919 2.87136 9.58683 2.86442 9.4271C2.85748 9.26738 2.854 9.12502 2.854 9.00002C2.854 8.87502 2.85748 8.73266 2.86442 8.57294C2.87136 8.41321 2.88873 8.27085 2.9165 8.14585L0.666504 6.50002L2.604 3.08335L5.06234 4.20835C5.28456 4.0278 5.5415 3.85419 5.83317 3.68752C6.12484 3.52085 6.40261 3.39585 6.6665 3.31252L7.08317 0.666687H10.9165L11.3332 3.29169C11.5971 3.38891 11.8783 3.51738 12.1769 3.6771C12.4755 3.83683 12.729 4.01391 12.9373 4.20835L15.3957 3.08335L17.3332 6.50002L15.0832 8.10419C15.1109 8.24308 15.1283 8.39238 15.1353 8.5521C15.1422 8.71183 15.1457 8.86113 15.1457 9.00002C15.1457 9.13891 15.1422 9.28474 15.1353 9.43752C15.1283 9.5903 15.1109 9.73613 15.0832 9.87502L17.3332 11.5L15.3957 14.9167L12.9373 13.7917C12.7151 13.9722 12.4616 14.1493 12.1769 14.3229C11.8922 14.4965 11.6109 14.625 11.3332 14.7084L10.9165 17.3334H7.08317ZM8.99984 11.7084C9.74984 11.7084 10.3887 11.4445 10.9165 10.9167C11.4443 10.3889 11.7082 9.75002 11.7082 9.00002C11.7082 8.25002 11.4443 7.61113 10.9165 7.08335C10.3887 6.55558 9.74984 6.29169 8.99984 6.29169C8.24984 6.29169 7.61095 6.55558 7.08317 7.08335C6.55539 7.61113 6.2915 8.25002 6.2915 9.00002C6.2915 9.75002 6.55539 10.3889 7.08317 10.9167C7.61095 11.4445 8.24984 11.7084 8.99984 11.7084ZM8.99984 10.4584C8.59706 10.4584 8.25331 10.316 7.96859 10.0313C7.68386 9.74655 7.5415 9.4028 7.5415 9.00002C7.5415 8.59724 7.68386 8.25349 7.96859 7.96877C8.25331 7.68405 8.59706 7.54169 8.99984 7.54169C9.40261 7.54169 9.74636 7.68405 10.0311 7.96877C10.3158 8.25349 10.4582 8.59724 10.4582 9.00002C10.4582 9.4028 10.3158 9.74655 10.0311 10.0313C9.74636 10.316 9.40261 10.4584 8.99984 10.4584ZM8.08317 16.0834H9.9165L10.2082 13.75C10.6665 13.6389 11.1005 13.4653 11.5103 13.2292C11.92 12.9931 12.2915 12.7084 12.6248 12.375L14.8332 13.3334L15.6665 11.8334L13.7082 10.3959C13.7637 10.1597 13.8089 9.9271 13.8436 9.69794C13.8783 9.46877 13.8957 9.23613 13.8957 9.00002C13.8957 8.76391 13.8818 8.53127 13.854 8.3021C13.8262 8.07294 13.7776 7.8403 13.7082 7.60419L15.6665 6.16669L14.8332 4.66669L12.6248 5.62502C12.3054 5.26391 11.9443 4.96183 11.5415 4.71877C11.1387 4.47571 10.6943 4.31946 10.2082 4.25002L9.9165 1.91669H8.08317L7.7915 4.25002C7.31928 4.34724 6.87831 4.51391 6.46859 4.75002C6.05886 4.98613 5.69428 5.2778 5.37484 5.62502L3.1665 4.66669L2.33317 6.16669L4.2915 7.60419C4.23595 7.8403 4.19081 8.07294 4.15609 8.3021C4.12136 8.53127 4.104 8.76391 4.104 9.00002C4.104 9.23613 4.12136 9.46877 4.15609 9.69794C4.19081 9.9271 4.23595 10.1597 4.2915 10.3959L2.33317 11.8334L3.1665 13.3334L5.37484 12.375C5.70817 12.7084 6.0797 12.9931 6.48942 13.2292C6.89914 13.4653 7.33317 13.6389 7.7915 13.75L8.08317 16.0834Z" fill="#726E6C"/>
</svg>
