<svg width="14" height="20" viewBox="0 0 14 20" fill="none" xmlns="http://www.w3.org/2000/svg">
<path d="M7 20C5.61667 20 4.4375 19.5125 3.4625 18.5375C2.4875 17.5625 2 16.3833 2 15V6C1.45 6 0.979167 5.80417 0.5875 5.4125C0.195833 5.02083 0 4.55 0 4V2C0 1.45 0.195833 0.979167 0.5875 0.5875C0.979167 0.195833 1.45 0 2 0H12C12.55 0 13.0208 0.195833 13.4125 0.5875C13.8042 0.979167 14 1.45 14 2V4C14 4.55 13.8042 5.02083 13.4125 5.4125C13.0208 5.80417 12.55 6 12 6V15C12 16.3833 11.5125 17.5625 10.5375 18.5375C9.5625 19.5125 8.38333 20 7 20ZM1.5 4.5H12.5V1.5H1.5V4.5ZM7 18.5C7.85 18.5 8.5875 18.2417 9.2125 17.725C9.8375 17.2083 10.2417 16.55 10.425 15.75H7V14.25H10.5V12.75H7V11.25H10.5V9.75H7V8.25H10.5V6H3.5V15C3.5 15.9722 3.84028 16.7986 4.52083 17.4792C5.20139 18.1597 6.02778 18.5 7 18.5Z" fill="#0A192C"/>
</svg>
